<svg width="43.937714" height="43.937744" viewBox="0 0 43.9377 43.9377" fill="none" xmlns="http://www.w3.org/2000/svg" xmlns:xlink="http://www.w3.org/1999/xlink">
	<desc>
			Created with Pixso.
	</desc>
	<defs/>
	<path id="order_play" d="M30.2 38.44L38.99 32.95L30.2 27.46L30.2 38.44ZM6.59 13.18L32.95 13.18L32.95 8.78L6.59 8.78L6.59 13.18ZM32.95 43.93C29.91 43.93 27.32 42.86 25.18 40.72C23.03 38.58 21.96 35.99 21.96 32.95C21.96 29.91 23.03 27.32 25.18 25.18C27.32 23.03 29.91 21.96 32.95 21.96C35.99 21.96 38.58 23.03 40.72 25.18C42.86 27.32 43.93 29.91 43.93 32.95C43.93 35.99 42.86 38.58 40.72 40.72C38.58 42.86 35.99 43.93 32.95 43.93ZM0 41.74L0 4.39C0 3.18 0.43 2.15 1.29 1.29C2.15 0.43 3.18 0 4.39 0L35.15 0C36.35 0 37.39 0.43 38.25 1.29C39.11 2.15 39.54 3.18 39.54 4.39L39.54 19.05C38.84 18.72 38.13 18.45 37.4 18.23C36.66 18.01 35.91 17.84 35.15 17.73L35.15 4.39L4.39 4.39L4.39 35.25L17.73 35.25C17.92 36.39 18.2 37.47 18.59 38.5C18.97 39.52 19.47 40.49 20.1 41.41L19.77 41.74L16.47 38.44L13.18 41.74L9.88 38.44L6.59 41.74L3.29 38.44L0 41.74ZM6.59 30.75L17.73 30.75C17.84 29.98 18.01 29.23 18.23 28.5C18.45 27.77 18.72 27.05 19.05 26.36L6.59 26.36L6.59 30.75ZM6.59 21.96L22.18 21.96C23.57 20.61 25.2 19.54 27.04 18.75C28.89 17.96 30.86 17.57 32.95 17.57L6.59 17.57L6.59 21.96Z" fill="#FFFFFF" fill-opacity="1.000000" fill-rule="nonzero"/>
</svg>
