<svg width="15.750000" height="15.750000" viewBox="0 0 15.75 15.75" fill="none" xmlns="http://www.w3.org/2000/svg" xmlns:xlink="http://www.w3.org/1999/xlink">
	<desc>
			Created with Pixso.
	</desc>
	<defs/>
	<path id="phone_in_talk" d="M14 7.87C14 6.16 13.4 4.72 12.21 3.53C11.02 2.34 9.58 1.75 7.87 1.75L7.87 0C8.96 0 9.99 0.2 10.94 0.62C11.9 1.03 12.73 1.6 13.44 2.3C14.14 3.01 14.71 3.84 15.12 4.8C15.54 5.75 15.75 6.78 15.75 7.87L14 7.87ZM10.5 7.87C10.5 7.14 10.24 6.52 9.73 6.01C9.22 5.5 8.6 5.25 7.87 5.25L7.87 3.5C9.08 3.5 10.11 3.92 10.97 4.77C11.82 5.63 12.25 6.66 12.25 7.87L10.5 7.87ZM14.83 15.75C13 15.75 11.2 15.35 9.42 14.55C7.64 13.76 6.03 12.63 4.57 11.17C3.11 9.71 1.98 8.1 1.19 6.32C0.39 4.54 0 2.74 0 0.91C0 0.65 0.08 0.43 0.26 0.26C0.43 0.08 0.65 0 0.91 0L4.46 0C4.66 0 4.84 0.06 5 0.2C5.16 0.34 5.26 0.51 5.29 0.7L5.86 3.76C5.89 3.99 5.88 4.19 5.84 4.35C5.79 4.51 5.71 4.65 5.6 4.76L3.47 6.91C3.76 7.45 4.11 7.97 4.51 8.47C4.91 8.97 5.35 9.46 5.84 9.93C6.29 10.38 6.76 10.8 7.26 11.18C7.75 11.57 8.28 11.92 8.83 12.25L10.89 10.19C11.02 10.06 11.19 9.96 11.4 9.89C11.61 9.83 11.82 9.81 12.03 9.84L15.05 10.45C15.25 10.51 15.42 10.62 15.55 10.77C15.68 10.92 15.75 11.09 15.75 11.28L15.75 14.83C15.75 15.09 15.66 15.31 15.48 15.48C15.31 15.66 15.09 15.75 14.83 15.75ZM2.64 5.25L4.09 3.8L3.71 1.75L1.77 1.75C1.84 2.34 1.94 2.93 2.07 3.52C2.2 4.1 2.39 4.68 2.64 5.25ZM10.47 13.08C11.04 13.32 11.62 13.52 12.21 13.67C12.8 13.81 13.4 13.91 14 13.95L14 12.03L11.94 11.61L10.47 13.08Z" fill="#FFFFFF" fill-opacity="1.000000" fill-rule="nonzero"/>
</svg>
