<svg width="16.666687" height="16.666504" viewBox="0 0 16.6667 16.6665" fill="none" xmlns="http://www.w3.org/2000/svg" xmlns:xlink="http://www.w3.org/1999/xlink">
	<desc>
			Created with Pixso.
	</desc>
	<defs/>
	<path id="copyright" d="M6.66 11.66L10 11.66C10.23 11.66 10.43 11.58 10.59 11.42C10.75 11.26 10.83 11.06 10.83 10.83L10.83 9.16L9.16 9.16L9.16 10L7.5 10L7.5 6.66L9.16 6.66L9.16 7.5L10.83 7.5L10.83 5.83C10.83 5.59 10.75 5.39 10.59 5.23C10.43 5.08 10.23 5 10 5L6.66 5C6.43 5 6.23 5.08 6.07 5.23C5.91 5.39 5.83 5.59 5.83 5.83L5.83 10.83C5.83 11.06 5.91 11.26 6.07 11.42C6.23 11.58 6.43 11.66 6.66 11.66ZM8.33 16.66C7.18 16.66 6.09 16.44 5.08 16.01C4.06 15.57 3.18 14.97 2.43 14.22C1.68 13.47 1.09 12.59 0.65 11.58C0.21 10.56 0 9.48 0 8.33C0 7.18 0.21 6.09 0.65 5.08C1.09 4.06 1.68 3.18 2.43 2.43C3.18 1.68 4.06 1.09 5.08 0.65C6.09 0.21 7.18 0 8.33 0C9.48 0 10.56 0.21 11.58 0.65C12.59 1.09 13.47 1.68 14.22 2.43C14.97 3.18 15.57 4.06 16.01 5.08C16.44 6.09 16.66 7.18 16.66 8.33C16.66 9.48 16.44 10.56 16.01 11.58C15.57 12.59 14.97 13.47 14.22 14.22C13.47 14.97 12.59 15.57 11.58 16.01C10.56 16.44 9.48 16.66 8.33 16.66ZM8.33 15C10.19 15 11.77 14.35 13.06 13.06C14.35 11.77 15 10.19 15 8.33C15 6.47 14.35 4.89 13.06 3.6C11.77 2.31 10.19 1.66 8.33 1.66C6.47 1.66 4.89 2.31 3.6 3.6C2.31 4.89 1.66 6.47 1.66 8.33C1.66 10.19 2.31 11.77 3.6 13.06C4.89 14.35 6.47 15 8.33 15Z" fill="#FFFFFF" fill-opacity="1.000000" fill-rule="nonzero"/>
</svg>
