<svg width="43.937714" height="43.937744" viewBox="0 0 43.9377 43.9377" fill="none" xmlns="http://www.w3.org/2000/svg" xmlns:xlink="http://www.w3.org/1999/xlink">
	<desc>
			Created with Pixso.
	</desc>
	<defs/>
	<path id="track_changes" d="M21.96 43.93C18.92 43.93 16.07 43.36 13.4 42.2C10.72 41.05 8.4 39.48 6.42 37.51C4.44 35.53 2.88 33.2 1.73 30.53C0.57 27.86 0 25 0 21.96C0 18.92 0.57 16.07 1.73 13.4C2.88 10.72 4.44 8.4 6.42 6.42C8.4 4.44 10.72 2.88 13.4 1.72C16.07 0.57 18.92 0 21.96 0L24.16 0L24.16 18.17C24.82 18.58 25.35 19.1 25.75 19.74C26.16 20.38 26.36 21.12 26.36 21.96C26.36 23.17 25.93 24.21 25.07 25.07C24.21 25.93 23.17 26.36 21.96 26.36C20.76 26.36 19.72 25.93 18.86 25.07C18 24.21 17.57 23.17 17.57 21.96C17.57 21.12 17.77 20.37 18.17 19.71C18.58 19.05 19.11 18.54 19.77 18.17L19.77 13.45C17.86 13.96 16.29 15 15.04 16.55C13.8 18.11 13.18 19.91 13.18 21.96C13.18 24.38 14.04 26.45 15.76 28.17C17.48 29.89 19.55 30.75 21.96 30.75C24.38 30.75 26.45 29.89 28.17 28.17C29.89 26.45 30.75 24.38 30.75 21.96C30.75 20.65 30.49 19.43 29.96 18.31C29.42 17.19 28.7 16.22 27.79 15.37L30.92 12.24C32.2 13.45 33.22 14.89 33.99 16.55C34.76 18.22 35.15 20.02 35.15 21.96C35.15 25.63 33.86 28.74 31.3 31.3C28.74 33.86 25.63 35.15 21.96 35.15C18.3 35.15 15.19 33.86 12.63 31.3C10.06 28.74 8.78 25.63 8.78 21.96C8.78 18.67 9.83 15.8 11.91 13.37C14 10.93 16.62 9.46 19.77 8.95L19.77 4.5C15.41 5.05 11.76 6.97 8.81 10.27C5.86 13.56 4.39 17.46 4.39 21.96C4.39 26.87 6.09 31.03 9.5 34.43C12.9 37.84 17.06 39.54 21.96 39.54C26.87 39.54 31.03 37.84 34.43 34.43C37.84 31.03 39.54 26.87 39.54 21.96C39.54 19.44 39.04 17.08 38.06 14.88C37.07 12.68 35.71 10.78 33.99 9.17L37.12 6.04C39.21 8.05 40.87 10.42 42.09 13.15C43.32 15.88 43.93 18.82 43.93 21.96C43.93 25 43.36 27.86 42.2 30.53C41.05 33.2 39.48 35.53 37.51 37.51C35.53 39.48 33.2 41.05 30.53 42.2C27.86 43.36 25 43.93 21.96 43.93Z" fill="#FFFFFF" fill-opacity="1.000000" fill-rule="nonzero"/>
</svg>
