<svg width="17.894745" height="16.418457" viewBox="0 0 17.8947 16.4185" fill="none" xmlns="http://www.w3.org/2000/svg" xmlns:xlink="http://www.w3.org/1999/xlink">
	<desc>
			Created with Pixso.
	</desc>
	<defs/>
	<path id="favorite" d="M8.94 16.41L7.64 15.25C6.14 13.89 4.89 12.72 3.91 11.74C2.93 10.75 2.14 9.87 1.56 9.09C0.98 8.31 0.57 7.59 0.34 6.93C0.11 6.27 0 5.6 0 4.92C0 3.51 0.46 2.34 1.4 1.4C2.34 0.46 3.51 0 4.92 0C5.69 0 6.43 0.16 7.13 0.49C7.83 0.82 8.44 1.28 8.94 1.87C9.45 1.28 10.05 0.82 10.75 0.49C11.46 0.16 12.19 0 12.97 0C14.37 0 15.54 0.46 16.48 1.4C17.42 2.34 17.89 3.51 17.89 4.92C17.89 5.6 17.77 6.27 17.54 6.93C17.31 7.59 16.91 8.31 16.32 9.09C15.74 9.87 14.96 10.75 13.98 11.74C12.99 12.72 11.75 13.89 10.24 15.25L8.94 16.41ZM8.94 14C10.37 12.72 11.55 11.62 12.48 10.7C13.4 9.78 14.13 8.98 14.67 8.31C15.21 7.63 15.58 7.02 15.79 6.49C16 5.96 16.1 5.44 16.1 4.92C16.1 4.02 15.8 3.28 15.21 2.68C14.61 2.08 13.86 1.78 12.97 1.78C12.27 1.78 11.62 1.98 11.02 2.38C10.43 2.77 10.02 3.28 9.79 3.89L8.09 3.89C7.87 3.28 7.46 2.77 6.86 2.38C6.27 1.98 5.62 1.78 4.92 1.78C4.02 1.78 3.28 2.08 2.68 2.68C2.08 3.28 1.78 4.02 1.78 4.92C1.78 5.44 1.89 5.96 2.1 6.49C2.31 7.02 2.68 7.63 3.22 8.31C3.75 8.98 4.48 9.78 5.41 10.7C6.33 11.62 7.51 12.72 8.94 14Z" fill="#FFFFFF" fill-opacity="1.000000" fill-rule="nonzero"/>
</svg>
