<svg width="15.428589" height="10.285706" viewBox="0 0 15.4286 10.2857" fill="none" xmlns="http://www.w3.org/2000/svg" xmlns:xlink="http://www.w3.org/1999/xlink">
	<desc>
			Created with Pixso.
	</desc>
	<defs/>
	<path id="send_money" d="M3.85 10.12C2.74 9.83 1.82 9.23 1.09 8.32C0.36 7.41 0 6.35 0 5.14C0 3.93 0.36 2.87 1.09 1.96C1.82 1.04 2.74 0.45 3.85 0.16L3.85 1.51C3.09 1.76 2.47 2.22 2 2.89C1.52 3.55 1.28 4.3 1.28 5.14C1.28 5.97 1.52 6.72 2 7.39C2.47 8.05 3.09 8.51 3.85 8.77L3.85 10.12ZM9 10.28C7.57 10.28 6.36 9.78 5.35 8.78C4.35 7.78 3.85 6.56 3.85 5.14C3.85 3.71 4.35 2.5 5.35 1.5C6.36 0.5 7.57 0 9 0C9.7 0 10.37 0.13 10.99 0.4C11.61 0.66 12.16 1.03 12.63 1.51L11.73 2.41C11.37 2.05 10.96 1.78 10.5 1.58C10.03 1.38 9.53 1.28 9 1.28C7.92 1.28 7.01 1.66 6.26 2.41C5.51 3.16 5.14 4.07 5.14 5.14C5.14 6.21 5.51 7.12 6.26 7.87C7.01 8.62 7.92 9 9 9C9.53 9 10.03 8.9 10.5 8.7C10.96 8.5 11.37 8.22 11.73 7.87L12.63 8.77C12.16 9.24 11.61 9.61 10.99 9.88C10.37 10.15 9.7 10.28 9 10.28ZM12.85 7.71L11.95 6.81L12.98 5.78L8.35 5.78L8.35 4.5L12.98 4.5L11.95 3.47L12.85 2.57L15.42 5.14L12.85 7.71Z" fill="#FFFFFF" fill-opacity="1.000000" fill-rule="nonzero"/>
</svg>
