<svg width="20.833313" height="13.541672" viewBox="0 0 20.8333 13.5417" fill="none" xmlns="http://www.w3.org/2000/svg" xmlns:xlink="http://www.w3.org/1999/xlink">
	<desc>
			Created with Pixso.
	</desc>
	<defs/>
	<path id="manage_search" d="M0 13.54L0 11.45L10.41 11.45L10.41 13.54L0 13.54ZM0 8.33L0 6.25L5.2 6.25L5.2 8.33L0 8.33ZM0 3.12L0 1.04L5.2 1.04L5.2 3.12L0 3.12ZM19.37 13.54L15.36 9.53C14.94 9.82 14.49 10.04 13.99 10.19C13.5 10.34 13 10.41 12.5 10.41C11.05 10.41 9.83 9.9 8.81 8.89C7.79 7.87 7.29 6.64 7.29 5.2C7.29 3.76 7.79 2.53 8.81 1.52C9.83 0.5 11.05 0 12.5 0C13.94 0 15.16 0.5 16.18 1.52C17.2 2.53 17.7 3.76 17.7 5.2C17.7 5.71 17.63 6.21 17.48 6.7C17.33 7.2 17.11 7.65 16.82 8.07L20.83 12.08L19.37 13.54ZM12.5 8.33C13.36 8.33 14.1 8.02 14.71 7.42C15.32 6.81 15.62 6.07 15.62 5.2C15.62 4.34 15.32 3.6 14.71 2.99C14.1 2.38 13.36 2.08 12.5 2.08C11.63 2.08 10.89 2.38 10.28 2.99C9.67 3.6 9.37 4.34 9.37 5.2C9.37 6.07 9.67 6.81 10.28 7.42C10.89 8.02 11.63 8.33 12.5 8.33Z" fill="#FFFFFF" fill-opacity="1.000000" fill-rule="nonzero"/>
</svg>
