<svg width="24.687531" height="24.687500" viewBox="0 0 24.6875 24.6875" fill="none" xmlns="http://www.w3.org/2000/svg" xmlns:xlink="http://www.w3.org/1999/xlink">
	<desc>
			Created with Pixso.
	</desc>
	<defs/>
	<path id="analytics" d="M5.48 19.2L8.22 19.2L8.22 12.34L5.48 12.34L5.48 19.2ZM16.45 19.2L19.2 19.2L19.2 5.48L16.45 5.48L16.45 19.2ZM10.97 19.2L13.71 19.2L13.71 15.08L10.97 15.08L10.97 19.2ZM10.97 12.34L13.71 12.34L13.71 9.6L10.97 9.6L10.97 12.34ZM2.74 24.68C1.98 24.68 1.34 24.41 0.8 23.88C0.26 23.34 0 22.69 0 21.94L0 2.74C0 1.98 0.26 1.34 0.8 0.8C1.34 0.26 1.98 0 2.74 0L21.94 0C22.69 0 23.34 0.26 23.88 0.8C24.41 1.34 24.68 1.98 24.68 2.74L24.68 21.94C24.68 22.69 24.41 23.34 23.88 23.88C23.34 24.41 22.69 24.68 21.94 24.68L2.74 24.68ZM2.74 21.94L21.94 21.94L21.94 2.74L2.74 2.74L2.74 21.94Z" fill="#FFFFFF" fill-opacity="1.000000" fill-rule="nonzero"/>
</svg>
