<svg width="102.000000" height="26.000000" viewBox="0 0 102 26" fill="none" xmlns="http://www.w3.org/2000/svg" xmlns:xlink="http://www.w3.org/1999/xlink">
	<desc>
			Created with Pixso.
	</desc>
	<defs/>
	<circle id="Ellipse 1" cx="12.000000" cy="12.000000" r="12.000000" fill="#255CEE" fill-opacity="1.000000"/>
	<mask id="mask7_24" mask-type="alpha" maskUnits="userSpaceOnUse" x="4.285706" y="4.285706" width="15.428589" height="15.428558">
		<rect id="Bounding box" x="4.285706" y="4.285706" width="15.428572" height="15.428572" fill="#D9D9D9" fill-opacity="1.000000"/>
	</mask>
	<g mask="url(#mask7_24)">
		<path id="send_money" d="M8.14 16.98C7.02 16.69 6.1 16.09 5.37 15.18C4.64 14.27 4.28 13.21 4.28 12C4.28 10.78 4.64 9.72 5.37 8.81C6.1 7.9 7.02 7.3 8.14 7.01L8.14 8.36C7.38 8.62 6.76 9.08 6.28 9.75C5.8 10.41 5.57 11.16 5.57 12C5.57 12.83 5.8 13.58 6.28 14.25C6.76 14.91 7.38 15.37 8.14 15.63L8.14 16.98ZM13.28 17.14C11.86 17.14 10.64 16.64 9.64 15.64C8.64 14.63 8.14 13.42 8.14 12C8.14 10.57 8.64 9.36 9.64 8.35C10.64 7.35 11.86 6.85 13.28 6.85C13.99 6.85 14.65 6.99 15.27 7.25C15.9 7.52 16.44 7.89 16.91 8.36L16.01 9.26C15.66 8.91 15.25 8.63 14.78 8.44C14.32 8.24 13.82 8.14 13.28 8.14C12.21 8.14 11.3 8.51 10.55 9.26C9.8 10.01 9.42 10.92 9.42 12C9.42 13.07 9.8 13.98 10.55 14.73C11.3 15.48 12.21 15.85 13.28 15.85C13.82 15.85 14.32 15.75 14.78 15.55C15.25 15.36 15.66 15.08 16.01 14.73L16.91 15.63C16.44 16.1 15.9 16.47 15.27 16.74C14.65 17 13.99 17.14 13.28 17.14ZM17.14 14.57L16.24 13.67L17.27 12.64L12.64 12.64L12.64 11.35L17.27 11.35L16.24 10.32L17.14 9.42L19.71 12L17.14 14.57Z" fill="#FFFFFF" fill-opacity="1.000000" fill-rule="nonzero"/>
	</g>
</svg>
