<svg width="20.000000" height="20.000000" viewBox="0 0 20 20" fill="none" xmlns="http://www.w3.org/2000/svg" xmlns:xlink="http://www.w3.org/1999/xlink">
	<desc>
			Created with Pixso.
	</desc>
	<defs/>
	<path id="task_alt" d="M10 20C8.61 20 7.31 19.73 6.09 19.21C4.88 18.68 3.82 17.97 2.92 17.07C2.02 16.17 1.31 15.11 0.78 13.89C0.26 12.68 0 11.38 0 10C0 8.61 0.26 7.31 0.78 6.1C1.31 4.88 2.02 3.82 2.92 2.92C3.82 2.02 4.88 1.31 6.09 0.78C7.31 0.26 8.61 0 10 0C11.08 0 12.1 0.15 13.07 0.47C14.04 0.79 14.93 1.23 15.75 1.8L14.3 3.27C13.66 2.87 12.99 2.56 12.27 2.33C11.55 2.11 10.8 2 10 2C7.78 2 5.89 2.77 4.33 4.33C2.77 5.89 2 7.78 2 10C2 12.21 2.77 14.1 4.33 15.66C5.89 17.22 7.78 18 10 18C12.21 18 14.1 17.22 15.66 15.66C17.22 14.1 18 12.21 18 10C18 9.69 17.98 9.39 17.95 9.1C17.91 8.8 17.86 8.5 17.79 8.22L19.42 6.6C19.6 7.13 19.75 7.68 19.85 8.25C19.95 8.81 20 9.39 20 10C20 11.38 19.73 12.68 19.21 13.89C18.68 15.11 17.97 16.17 17.07 17.07C16.17 17.97 15.11 18.68 13.9 19.21C12.68 19.73 11.38 20 10 20ZM8.59 14.6L4.34 10.35L5.75 8.94L8.59 11.8L18.6 1.77L20 3.17L8.59 14.6Z" fill="#255CEE" fill-opacity="1.000000" fill-rule="nonzero"/>
</svg>
