<svg width="39.543945" height="39.543945" viewBox="0 0 39.5439 39.5439" fill="none" xmlns="http://www.w3.org/2000/svg" xmlns:xlink="http://www.w3.org/1999/xlink">
	<desc>
			Created with Pixso.
	</desc>
	<defs/>
	<path id="dataset" d="M8.78 30.75L17.57 30.75L17.57 21.96L8.78 21.96L8.78 30.75ZM21.96 30.75L30.75 30.75L30.75 21.96L21.96 21.96L21.96 30.75ZM8.78 17.57L17.57 17.57L17.57 8.78L8.78 8.78L8.78 17.57ZM21.96 17.57L30.75 17.57L30.75 8.78L21.96 8.78L21.96 17.57ZM4.39 39.54C3.18 39.54 2.15 39.11 1.29 38.25C0.43 37.39 0 36.35 0 35.15L0 4.39C0 3.18 0.43 2.15 1.29 1.29C2.15 0.43 3.18 0 4.39 0L35.15 0C36.35 0 37.39 0.43 38.25 1.29C39.11 2.15 39.54 3.18 39.54 4.39L39.54 35.15C39.54 36.35 39.11 37.39 38.25 38.25C37.39 39.11 36.35 39.54 35.15 39.54L4.39 39.54ZM4.39 35.15L35.15 35.15L35.15 4.39L4.39 4.39L4.39 35.15Z" fill="#FFFFFF" fill-opacity="1.000000" fill-rule="nonzero"/>
</svg>
