<svg width="19.684204" height="13.420898" viewBox="0 0 19.6842 13.4209" fill="none" xmlns="http://www.w3.org/2000/svg" xmlns:xlink="http://www.w3.org/1999/xlink">
	<desc>
			Created with Pixso.
	</desc>
	<defs/>
	<path id="visibility" d="M9.84 10.73C10.96 10.73 11.91 10.34 12.69 9.56C13.47 8.77 13.86 7.82 13.86 6.71C13.86 5.59 13.47 4.64 12.69 3.85C11.91 3.07 10.96 2.68 9.84 2.68C8.72 2.68 7.77 3.07 6.99 3.85C6.2 4.64 5.81 5.59 5.81 6.71C5.81 7.82 6.2 8.77 6.99 9.56C7.77 10.34 8.72 10.73 9.84 10.73ZM9.84 9.12C9.17 9.12 8.6 8.89 8.13 8.42C7.66 7.95 7.42 7.38 7.42 6.71C7.42 6.03 7.66 5.46 8.13 4.99C8.6 4.52 9.17 4.29 9.84 4.29C10.51 4.29 11.08 4.52 11.55 4.99C12.02 5.46 12.25 6.03 12.25 6.71C12.25 7.38 12.02 7.95 11.55 8.42C11.08 8.89 10.51 9.12 9.84 9.12ZM9.84 13.42C7.66 13.42 5.68 12.81 3.89 11.59C2.1 10.38 0.8 8.75 0 6.71C0.8 4.66 2.1 3.03 3.89 1.82C5.68 0.6 7.66 0 9.84 0C12.01 0 14 0.6 15.79 1.82C17.58 3.03 18.87 4.66 19.68 6.71C18.87 8.75 17.58 10.38 15.79 11.59C14 12.81 12.01 13.42 9.84 13.42ZM9.84 11.63C11.52 11.63 13.07 11.18 14.48 10.3C15.89 9.41 16.97 8.21 17.71 6.71C16.97 5.2 15.89 4 14.48 3.12C13.07 2.23 11.52 1.78 9.84 1.78C8.15 1.78 6.6 2.23 5.2 3.12C3.79 4 2.71 5.2 1.96 6.71C2.71 8.21 3.79 9.41 5.2 10.3C6.6 11.18 8.15 11.63 9.84 11.63Z" fill="#FFFFFF" fill-opacity="1.000000" fill-rule="nonzero"/>
</svg>
